<?xml version="1.0" encoding="utf-8"?>
<!-- Generator: Adobe Illustrator 16.0.0, SVG Export Plug-In . SVG Version: 6.00 Build 0)  -->
<!DOCTYPE svg PUBLIC "-//W3C//DTD SVG 1.1//EN" "http://www.w3.org/Graphics/SVG/1.1/DTD/svg11.dtd">
<svg version="1.1" id="Capa_2" xmlns="http://www.w3.org/2000/svg" xmlns:xlink="http://www.w3.org/1999/xlink" x="0px" y="0px"
	 width="40px" height="32px" viewBox="0 0 40 32" enable-background="new 0 0 40 32" xml:space="preserve">
<g>
	<path fill="#231F20" d="M31.053,1.272H17.359h-1.502c4.269,0,7.938,3.387,8.469,7.545v21.222h7.59V8.817h7.607
		C38.992,4.659,35.323,1.272,31.053,1.272z"/>
	<path fill="#231F20" d="M20.153,14.933c1.116-1.424,1.851-3.237,1.851-5.201c0-2.34-1.01-4.51-2.604-6.084h0.003
		c-0.486-0.481-1.033-0.898-1.616-1.255c-1.281-0.786-2.766-1.253-4.336-1.253H0.695v28.9h5.59h2.002h6.662
		c4.586,0,8.48-3.893,8.48-8.478C23.43,18.941,22.118,16.514,20.153,14.933z M8.288,7.419h3.66c0.714,0,1.346,0.307,1.803,0.785
		c0.013,0.014,0.032,0.026,0.047,0.042h-0.001c0.401,0.446,0.651,1.028,0.651,1.677c0,1.348-1.062,2.437-2.394,2.5l-3.767,0.006
		V7.419z M13.371,23.796H8.288v-5.01h3.54h0.227h1.316c1.311,0,2.504,1.119,2.504,2.504C15.875,22.678,14.758,23.796,13.371,23.796z
		"/>
</g>
</svg>
